<?xml version="1.0" encoding="utf-8"?>
<!-- Generator: Adobe Illustrator 24.1.0, SVG Export Plug-In . SVG Version: 6.00 Build 0)  -->
<svg version="1.1" id="图层_1" xmlns="http://www.w3.org/2000/svg" xmlns:xlink="http://www.w3.org/1999/xlink" x="0px" y="0px"
	 viewBox="0 0 1024 1024" style="enable-background:new 0 0 1024 1024;" xml:space="preserve">
<style type="text/css">
	.st0{fill:#7A6B3D;}
	.st1{fill:#37211D;}
	.st2{fill:#C8570D;}
	.st3{fill:#C8570D;stroke:#37211D;stroke-width:1.6054;stroke-miterlimit:10;}
	.st4{fill:#F9D4B7;}
	.st5{fill:none;stroke:#37211D;stroke-width:1.6054;stroke-miterlimit:10;}
	.st6{fill:#692129;}
	.st7{fill:#2C0B00;}
	.st8{fill:#FCCBAC;}
	.st9{fill:#B55A4C;}
	.st10{opacity:0.06;}
	.st11{fill:#C27269;}
	.st12{fill:#592521;}
	.st13{fill:#1A2E35;}
	.st14{fill:#8E6789;}
	.st15{fill:#FFFFFF;}
	.st16{fill:#2D0A2B;}
	.st17{opacity:0.3;}
	.st18{fill:#FADED7;}
	.st19{fill:#FFB5A9;}
	.st20{fill:#E1E1E1;}
	.st21{fill:#FFC8BD;}
</style>
<g>
	<g>
		<g>
			<g>
				<path class="st0" d="M651.33,656.47l-62.89-18.76l11.16-61.45l88.31,16.21c0,0,15.35,1.01,15.51,24.44
					c0.17,23.43-8.72,86.08-8.72,86.08s-1.68,7.86-9.92,8.55c-7.98,0.67-12.79-2.78-19.74-16.53
					C659.45,683.97,651.33,656.47,651.33,656.47z"/>
				<path class="st1" d="M683.01,712.42c-7.58,0-12.33-4.46-18.69-17.05c-5.18-10.23-12.59-34.75-13.64-38.26l-63.16-18.84
					l11.43-62.95l89.1,16.36l0,0c0.08,0,16,1.33,16.17,25.22c0.17,23.22-8.64,85.57-8.73,86.2c-0.03,0.14-1.92,8.51-10.65,9.24
					C684.22,712.39,683.61,712.42,683.01,712.42z M589.36,637.15l62.62,18.68l0.12,0.42c0.08,0.27,8.16,27.56,13.66,38.41
					c6.57,13,11,16.76,18.96,16.09c7.53-0.63,9.14-7.62,9.2-7.92c0.08-0.57,8.87-62.8,8.7-85.9c-0.15-22.35-14.17-23.6-14.76-23.65
					l-87.61-16.08L589.36,637.15z"/>
			</g>
			<g>
				<path class="st2" d="M686.86,685.73c-8.62-0.85-16.72,2.09-22.71,7.43c0.3,0.65,0.6,1.28,0.89,1.85
					c6.95,13.75,11.76,17.19,19.74,16.53c8.24-0.69,9.92-8.55,9.92-8.55s0.82-5.8,1.96-14.51
					C693.65,687.05,690.37,686.08,686.86,685.73z"/>
				<path class="st1" d="M683.03,712.42c-7.59,0-12.35-4.46-18.71-17.05c-0.29-0.58-0.6-1.22-0.9-1.88l-0.25-0.54l0.44-0.4
					c6.37-5.68,14.87-8.47,23.32-7.63l0,0c3.46,0.34,6.85,1.29,10.07,2.82l0.53,0.25l-0.08,0.58c-1.13,8.61-1.95,14.46-1.96,14.52
					c-0.03,0.14-1.92,8.51-10.65,9.24C684.22,712.39,683.62,712.42,683.03,712.42z M665.13,693.37c0.21,0.45,0.42,0.88,0.62,1.28
					c6.57,12.99,11,16.75,18.96,16.09c7.53-0.63,9.14-7.62,9.2-7.92c0,0,0.78-5.58,1.87-13.86c-2.89-1.31-5.92-2.12-9.01-2.43
					C678.97,685.76,671.12,688.25,665.13,693.37z"/>
			</g>
			<path class="st3" d="M672.65,603.1c-1.54,15.6,10.63,29.57,27.18,31.21c0.94,0.09,1.86,0.13,2.79,0.14
				c0.53-6.84,1.34-12.81,1.85-17.38c3.03-27.48-28.18-26.74-28.18-26.74C674.22,593.71,673.06,598.95,672.65,603.1z"/>
			<polygon class="st3" points="607.34,643.34 619.46,580.26 597.14,575.76 584.67,636.58 			"/>
			<path class="st4" d="M633.22,615.66c1.01-0.72,1.14-2.42,0.33-3.32c-0.9-1-2.25-1.1-3.32-0.33c-2.08,1.49-4.35,2.77-6.29,4.46
				c-1.03,0.9-1.06,2.24-0.33,3.32c1.61,2.39,3.21,4.77,4.82,7.16c0.69,1.03,2.43,1.12,3.32,0.33c1.03-0.92,1.07-2.23,0.33-3.32
				c-0.54-0.81-1.09-1.61-1.63-2.42c1.09,0.19,2.17,0.38,3.26,0.57c0.19,0.35,0.38,0.68,0.55,1.01c0.55,1.09,1.11,2.18,1.66,3.27
				c0.56,1.1,1.97,1.76,3.13,1.16c1.1-0.56,1.76-1.96,1.16-3.13c-0.22-0.43-0.44-0.86-0.65-1.28c2.63,0.46,5.25,0.92,7.88,1.38
				c1.26,0.22,2.46-0.92,2.58-2.12c0.13-1.35-0.86-2.36-2.12-2.58c-2.53-0.44-5.07-0.89-7.6-1.33c0.39-0.28,0.79-0.56,1.18-0.85
				c1.01-0.72,1.14-2.42,0.33-3.32c-0.9-1.01-2.25-1.1-3.32-0.33c-0.95,0.68-1.9,1.36-2.84,2.04c-0.58,0.42-1.25,0.83-1.79,1.34
				c-0.82-0.14-1.64-0.29-2.46-0.43C632.01,616.5,632.62,616.09,633.22,615.66z"/>
			<g>
				<line class="st5" x1="608.82" y1="635.61" x2="586.63" y2="629.88"/>
				<line class="st5" x1="587.56" y1="622.51" x2="610.21" y2="628.4"/>
				<line class="st5" x1="589" y1="615.49" x2="611.68" y2="620.75"/>
				<line class="st5" x1="595.68" y1="582.89" x2="618.09" y2="587.39"/>
				<line class="st5" x1="594.23" y1="590.35" x2="616.65" y2="595.43"/>
				<line class="st5" x1="590.51" y1="609.76" x2="612.88" y2="614.49"/>
				<line class="st5" x1="591.62" y1="602.69" x2="614.2" y2="607.61"/>
				<line class="st5" x1="592.9" y1="596.45" x2="615.33" y2="601.77"/>
			</g>
		</g>
		<g>
			<g>
				<path class="st0" d="M551.69,895.93l22.78-62.47l-56.7-28.08l-40.22,81.59c0,0-8.46,13.08,10.48,27.39
					c18.94,14.3,75.24,44.97,75.24,44.97s7.4,3.39,12.95-2.9c5.37-6.09,5.48-12.07-1.49-26.04
					C569.13,919.16,551.69,895.93,551.69,895.93z"/>
				<path class="st1" d="M567.96,961.03c-2.86,0-4.99-0.95-5.03-0.96c-0.61-0.33-56.62-30.89-75.39-45.06
					c-19.32-14.6-10.76-28.34-10.67-28.48l40.53-82.24l58.08,28.77l-0.25,0.68l-22.63,62.06c2.21,2.97,17.66,23.82,22.85,34.23
					c6.87,13.78,7.21,20.32,1.37,26.94C573.98,960.2,570.65,961.03,567.96,961.03z M518.14,806.47l-39.86,80.86
					c-0.37,0.59-7.83,12.73,10.24,26.38c18.68,14.1,74.58,44.6,75.14,44.9c0.23,0.1,6.88,3.02,11.95-2.72
					c5.35-6.07,4.98-11.94-1.61-25.14c-5.5-11.04-22.79-34.1-22.96-34.33l-0.26-0.35l0.15-0.41l22.53-61.79L518.14,806.47z"/>
			</g>
			<g>
				<path class="st2" d="M553.99,942.5c4.52-7.52,11.81-12.33,19.77-13.97c0.35,0.64,0.68,1.26,0.97,1.84
					c6.97,13.97,6.86,19.96,1.49,26.04c-5.55,6.28-12.95,2.9-12.95,2.9s-5.21-2.84-12.98-7.18
					C550.96,948.82,552.15,945.56,553.99,942.5z"/>
				<path class="st1" d="M567.95,961.01c-2.86,0-4.98-0.94-5.02-0.96c-0.1-0.05-5.35-2.92-13.04-7.21l-0.52-0.29l0.12-0.58
					c0.72-3.57,2-6.9,3.8-9.89c4.43-7.37,11.83-12.6,20.3-14.35l0.59-0.12l0.29,0.53c0.36,0.65,0.69,1.28,0.99,1.87
					c6.88,13.78,7.21,20.33,1.37,26.94C573.98,960.18,570.64,961.01,567.95,961.01z M551.21,951.71c7.39,4.12,12.4,6.86,12.45,6.88
					c0.23,0.1,6.88,3.01,11.95-2.72c5.35-6.06,4.98-11.94-1.61-25.14c-0.2-0.41-0.43-0.84-0.67-1.28
					c-7.78,1.77-14.55,6.65-18.65,13.46l0,0C553.08,945.59,551.91,948.54,551.21,951.71z"/>
			</g>
			<g>
				<path class="st2" d="M495.41,880.98c13.61,8.18,17.61,26.52,8.93,40.96c-0.49,0.82-1.02,1.6-1.57,2.35
					c-5.88-3.71-11.23-6.66-15.24-9.01c-24.17-14.16-4.69-39.08-4.69-39.08C486.83,876.58,491.79,878.8,495.41,880.98z"/>
				<path class="st1" d="M502.98,925.38l-0.64-0.41c-4.27-2.7-8.21-4.96-11.67-6.95c-1.27-0.73-2.45-1.41-3.54-2.05
					c-6.84-4.01-10.92-9.25-12.13-15.6c-2.35-12.28,6.82-24.19,7.21-24.69l0.27-0.35l0.44,0.04c5.28,0.5,11.22,3.87,12.91,4.89l0,0
					c6.78,4.07,11.46,10.7,13.2,18.66c1.73,7.94,0.31,16.26-3.99,23.42c-0.47,0.78-0.99,1.57-1.61,2.41L502.98,925.38z
					 M483.21,877.06c-1.49,2.06-8.62,12.61-6.63,23.03c1.12,5.86,4.94,10.73,11.35,14.49c1.08,0.64,2.27,1.31,3.53,2.04
					c3.31,1.9,7.03,4.04,11.08,6.58c0.4-0.57,0.76-1.13,1.09-1.67c4.09-6.81,5.44-14.7,3.8-22.24c-1.64-7.52-6.06-13.77-12.45-17.61
					l0,0C491.78,879.74,487.06,877.56,483.21,877.06z"/>
			</g>
			<g>
				<polygon class="st2" points="567.62,852.23 509.01,823.93 518.85,803.07 575.83,829.72 				"/>
				<path class="st1" d="M568.08,853.35l-60.15-29.04l10.53-22.32l58.39,27.31L568.08,853.35z M510.09,823.55l57.07,27.56
					l7.65-20.97l-55.57-25.99L510.09,823.55z"/>
			</g>
			<path class="st4" d="M529.47,856.53c-1.2,0.38-2.65-0.53-2.9-1.74c-0.27-1.34,0.47-2.49,1.74-2.9c2.47-0.79,4.88-1.86,7.42-2.41
				c1.35-0.29,2.46,0.49,2.9,1.74c0.97,2.75,1.93,5.5,2.9,8.25c0.42,1.19-0.56,2.66-1.74,2.9c-1.37,0.28-2.46-0.48-2.9-1.74
				c-0.33-0.93-0.65-1.86-0.98-2.79c-0.5,1-1.01,2-1.51,3c0.17,0.36,0.33,0.72,0.49,1.06c0.55,1.11,1.1,2.22,1.65,3.33
				c0.56,1.12,0.24,2.66-0.95,3.25c-1.12,0.55-2.65,0.25-3.25-0.95c-0.22-0.44-0.43-0.87-0.65-1.31c-1.21,2.41-2.43,4.83-3.65,7.24
				c-0.58,1.16-2.23,1.45-3.28,0.82c-1.18-0.71-1.4-2.13-0.82-3.28c1.17-2.33,2.34-4.66,3.52-6.98c-0.47,0.15-0.94,0.3-1.4,0.45
				c-1.2,0.38-2.65-0.53-2.9-1.74c-0.27-1.34,0.47-2.49,1.74-2.9c1.12-0.36,2.25-0.72,3.37-1.08c0.69-0.22,1.43-0.51,2.17-0.65
				c0.38-0.75,0.76-1.51,1.14-2.26C530.88,856.05,530.18,856.3,529.47,856.53z"/>
			<g>
				
					<rect x="553.21" y="837.19" transform="matrix(0.3772 -0.9261 0.9261 0.3772 -424.329 1045.0262)" class="st1" width="23.23" height="1.63"/>
				
					<rect x="546.33" y="833.73" transform="matrix(0.3757 -0.9267 0.9267 0.3757 -424.932 1038.2661)" class="st1" width="23.71" height="1.63"/>
				
					<rect x="539.55" y="830.48" transform="matrix(0.4 -0.9165 0.9165 0.4 -431.0797 1004.0953)" class="st1" width="23.59" height="1.63"/>
				
					<rect x="509.01" y="815.85" transform="matrix(0.4274 -0.9041 0.9041 0.4274 -440.2271 938.2448)" class="st1" width="23.16" height="1.63"/>
				
					<rect x="516.11" y="819.36" transform="matrix(0.4049 -0.9144 0.9144 0.4049 -435.8713 970.6323)" class="st1" width="23.28" height="1.63"/>
				
					<rect x="534.08" y="827.95" transform="matrix(0.4177 -0.9086 0.9086 0.4177 -435.2636 978.3819)" class="st1" width="23.17" height="1.63"/>
				
					<rect x="527.54" y="824.72" transform="matrix(0.4128 -0.9108 0.9108 0.4128 -435.2691 975.9061)" class="st1" width="23.42" height="1.63"/>
				
					<rect x="521.94" y="822.04" transform="matrix(0.3951 -0.9186 0.9186 0.3951 -433.1182 987.967)" class="st1" width="23.35" height="1.63"/>
			</g>
		</g>
		<g>
			<path class="st6" d="M391.39,502.07c-20.01,0.46-38.99,3.29-52.77,17.8c-18.28,19.25-40.88,46.66-42.16,65.68
				c-1.92,28.42,15.23,36.87,27.74,43.79c5.54,3.06,11.85,4.45,18.17,4.2l231.25-1.75l7.26-39.17l-149.56-36.86l6.21-56.29
				L391.39,502.07z"/>
		</g>
		<g>
			<path class="st6" d="M437.54,499.47l72.74-3.35c0,0,125.66,6.99,152.47,31.56c26.8,24.57,23.45,52.49,14.52,79.3
				S589.6,805.22,589.6,805.22s6.38,10.9,2.79,21.78c-5.56,16.84-20.54,19.56-20.54,19.56l-69.93-25.7c0,0-9.49-3.35-2.79-12.29
				c6.7-8.93,11.17-10.61,11.17-10.61v-12.09c0-3.79,0.95-7.51,2.77-10.83c6.49-11.87,22.27-40.9,24.03-45.77
				c2.23-6.14,25.79-97.07,25.79-97.07l15.64-26.89c0,0-37.84-17.79-70.63-30.68l-76.58-18.87L437.54,499.47z"/>
		</g>
		<g>
			<g>
				<path class="st7" d="M555.53,817.62c-0.14,0.17-2.35-1.58-6.14-4.02c-3.78-2.45-9.24-5.49-15.66-7.95
					c-6.43-2.43-12.53-3.79-16.99-4.47c-4.46-0.69-7.27-0.85-7.26-1.07c0-0.15,2.83-0.33,7.38,0.13c4.54,0.45,10.8,1.68,17.34,4.15
					c6.54,2.5,12.03,5.73,15.72,8.42C553.63,815.49,555.63,817.5,555.53,817.62z"/>
			</g>
		</g>
		<g>
			<g>
				<path class="st7" d="M590.48,805.34c-0.14,0.12-1.7-1.51-4.06-4.28s-5.5-6.69-8.79-11.16s-6.1-8.64-8.04-11.71
					c-1.94-3.08-3.03-5.05-2.88-5.15c0.16-0.1,1.52,1.69,3.66,4.62c2.44,3.35,5.24,7.2,8.34,11.45c3.14,4.22,5.98,8.04,8.45,11.37
					C589.32,803.38,590.62,805.22,590.48,805.34z"/>
			</g>
		</g>
		<g>
			<g>
				<path class="st7" d="M616.11,580.77c0.04,0.22-2.57,0.77-6.63,2.12c-4.06,1.34-9.53,3.62-15.06,7.06
					c-5.52,3.46-9.97,7.37-12.96,10.43c-2.99,3.05-4.64,5.15-4.81,5.02c-0.12-0.08,1.26-2.4,4.12-5.67
					c2.85-3.27,7.3-7.39,12.94-10.92c5.65-3.51,11.3-5.71,15.49-6.83C613.4,580.85,616.08,580.62,616.11,580.77z"/>
			</g>
		</g>
		<g>
			<g>
				<path class="st7" d="M544.57,702.17c-0.04-0.01,0.06-0.53,0.29-1.51c0.28-1.12,0.64-2.53,1.07-4.26
					c1.04-3.86,2.46-9.15,4.19-15.6c3.71-13.3,8.75-31.37,14.31-51.35c2.9-10.01,5.39-19.57,8.19-28.21
					c3.25-8.58,8.4-15.2,13.17-20.09c4.81-4.91,9.31-8.21,12.5-10.31c1.62-1.03,2.88-1.8,3.77-2.27c0.88-0.49,1.36-0.72,1.38-0.68
					c0.06,0.1-1.75,1.19-4.86,3.38c-3.08,2.21-7.45,5.6-12.11,10.53c-4.62,4.91-9.59,11.49-12.69,19.86
					c-2.68,8.53-5.17,18.19-8.06,28.17c-5.71,19.93-10.88,37.96-14.69,51.23c-1.9,6.41-3.46,11.66-4.6,15.49
					c-0.54,1.71-0.97,3.09-1.32,4.19C544.8,701.69,544.62,702.18,544.57,702.17z"/>
			</g>
		</g>
		<g>
			<g>
				<path class="st7" d="M480.23,571.21c-0.37,0.03-1.9-13.57-3.42-30.38c-1.52-16.81-2.45-30.47-2.08-30.5
					c0.37-0.03,1.9,13.57,3.42,30.38C479.67,557.52,480.6,571.17,480.23,571.21z"/>
			</g>
		</g>
		<g>
			<g>
				<path class="st7" d="M359.15,607.52c-0.2,0.1-1.33-2.1-3.6-5.33c-2.26-3.23-5.84-7.39-10.56-11.1
					c-4.74-3.69-9.65-6.15-13.33-7.57c-3.68-1.43-6.09-1.99-6.04-2.21c0.02-0.14,2.52,0.09,6.36,1.31c3.83,1.21,8.96,3.61,13.83,7.4
					c4.86,3.81,8.42,8.2,10.53,11.63C358.46,605.1,359.28,607.46,359.15,607.52z"/>
			</g>
		</g>
		<g>
			<g>
				<path class="st7" d="M403.72,558.14c-0.13,0.21-3.21-1.77-8.56-4.2c-5.33-2.44-13.04-5.11-21.89-6.4
					c-8.86-1.26-17.01-0.86-22.81-0.01c-5.81,0.83-9.32,1.86-9.39,1.63c-0.03-0.09,0.83-0.41,2.41-0.92
					c1.57-0.53,3.91-1.11,6.83-1.65c5.83-1.1,14.14-1.66,23.15-0.38c9.01,1.31,16.82,4.18,22.11,6.87c2.65,1.34,4.73,2.55,6.09,3.5
					C403.04,557.52,403.77,558.06,403.72,558.14z"/>
			</g>
		</g>
		<g>
			<g>
				<path class="st7" d="M577.9,592.58c-0.01,0.05-0.63-0.06-1.81-0.3c-1.3-0.28-3.01-0.65-5.13-1.11c-4.6-1.03-11-2.47-18.85-4.24
					c-15.92-3.57-37.94-8.34-62.34-13.18c-24.42-4.83-46.6-8.8-62.67-11.57c-7.93-1.36-14.39-2.47-19.04-3.27
					c-2.14-0.38-3.86-0.69-5.17-0.93c-1.18-0.23-1.8-0.37-1.79-0.41s0.64,0.01,1.83,0.15c1.32,0.17,3.05,0.4,5.21,0.68
					c4.52,0.61,11.05,1.58,19.11,2.85c16.12,2.53,38.34,6.36,62.78,11.19c24.43,4.84,46.43,9.77,62.3,13.57
					c7.93,1.9,14.34,3.49,18.76,4.65c2.1,0.56,3.79,1.01,5.08,1.36C577.31,592.35,577.91,592.54,577.9,592.58z"/>
			</g>
		</g>
		<g>
			<g>
				<path class="st7" d="M431.33,562.4c-0.26,0.08-0.8-3.06-3.2-7.39c-1.22-2.15-2.97-4.53-5.29-6.84c-2.29-2.33-5.11-4.66-8.1-7
					c-6.04-4.62-12.17-7.89-16.56-10.29c-4.42-2.37-7.16-3.85-7.08-4.02c0.08-0.16,2.96,1.02,7.51,3.18
					c4.52,2.19,10.79,5.35,16.95,10.07c3.04,2.38,5.85,4.75,8.17,7.21c2.33,2.43,4.09,4.97,5.24,7.25c1.14,2.29,1.76,4.27,2.07,5.65
					C431.34,561.6,431.41,562.38,431.33,562.4z"/>
			</g>
		</g>
	</g>
	<g>
		<path class="st8" d="M346.94,513.51c9.86-25.97,30.58-47.27,55.53-59.49s53.82-15.58,81.26-11.25
			c21.93,3.46,43.84,12.27,58.47,28.97c12.41,14.17,19.2,33.47,34.64,44.25c19.37,13.52,45.48,9.3,68.76,5.27
			c23.28-4.03,50.19-6.33,67.65,9.59c11.21,10.22,17.01,26.9,31.12,32.46c16.33,6.44,37.74-4.91,51.14,6.43
			c9.8,8.3,8.32,24.78,0.23,34.75s-20.69,14.95-32.81,19.19c-47.67,16.67-97.29,28.26-147.67,31.79
			c-31.82,2.23-65.44,0.82-92.96-15.31c-12.97-7.6-24.23-18.29-38.23-23.77c-32.12-12.57-67.08,5.24-100.71,12.89
			c-29.63,6.75-61.59,5.25-89.27-7.29c-15.18-6.88-30.27-19.45-30.63-36.11c-0.41-19.22,18.21-32.65,34.73-42.49
			c17.1-10.19,34.19-20.38,51.29-30.57"/>
		<g>
			<g>
				<path class="st9" d="M607.45,533.95c0,0.03-0.45,0.07-1.31,0.12c-0.86,0.07-2.13,0.05-3.75,0.22
					c-3.25,0.21-7.94,0.78-13.65,1.95c-5.71,1.16-12.4,3.04-19.72,5.48c-7.32,2.43-15.27,5.42-23.69,8.35
					c-8.44,2.91-16.63,5.31-24.24,6.79s-14.61,2.11-20.47,1.91c-5.87-0.18-10.58-0.96-13.74-1.8c-1.6-0.34-2.79-0.82-3.62-1.06
					c-0.82-0.27-1.24-0.42-1.23-0.45c0.01-0.03,0.45,0.06,1.29,0.27c0.84,0.18,2.04,0.6,3.65,0.88c3.17,0.73,7.86,1.41,13.68,1.5
					c5.82,0.12,12.75-0.57,20.29-2.09c7.55-1.52,15.69-3.93,24.11-6.83c8.41-2.92,16.37-5.89,23.73-8.28
					c7.35-2.4,14.1-4.23,19.86-5.31c5.76-1.09,10.49-1.57,13.76-1.67c1.63-0.11,2.91-0.03,3.77-0.04
					C607,533.89,607.45,533.91,607.45,533.95z"/>
				<path class="st9" d="M502.76,559.84c-0.74,0-1.47-0.01-2.18-0.04c-6.95-0.21-11.74-1.24-13.97-1.83
					c-1.12-0.24-2.07-0.55-2.83-0.81c-0.3-0.1-0.57-0.19-0.81-0.26c-1.44-0.47-1.65-0.54-1.87-0.98l-0.19-0.39l0.14-0.41
					c0.31-0.96,1.14-0.75,2.52-0.4c0.28,0.06,0.65,0.16,1.06,0.27c0.68,0.19,1.53,0.42,2.51,0.59c2.25,0.52,6.93,1.38,13.52,1.48
					c5.83,0.12,12.76-0.6,20.07-2.07c6.88-1.39,14.73-3.61,23.98-6.79c3.06-1.06,6.06-2.13,9-3.18c5.17-1.84,10.06-3.58,14.75-5.11
					c7.61-2.49,14.34-4.28,19.99-5.34c5.12-0.97,10.07-1.57,13.92-1.69c1.15-0.08,2.15-0.06,2.95-0.05c0.31,0,0.59,0.01,0.84,0.01
					c0.01,0,0.02,0,0.03,0c1.34,0,2.3,0.01,2.3,1.1c0,1.02-0.81,1.07-2.29,1.16c-0.31,0.03-0.7,0.04-1.14,0.06
					c-0.7,0.03-1.58,0.06-2.56,0.16c-2.27,0.15-6.98,0.59-13.55,1.93c-5.53,1.12-12.13,2.96-19.6,5.45
					c-4.33,1.44-8.86,3.06-13.65,4.78c-3.26,1.17-6.6,2.37-10.03,3.56c-9.35,3.22-17.32,5.45-24.38,6.83
					C514.64,559.17,508.29,559.84,502.76,559.84z"/>
			</g>
		</g>
		<g>
			<g>
				<path class="st9" d="M403.16,557.75c0.01,0.03-0.28,0.1-0.83,0.22c-0.55,0.09-1.35,0.3-2.41,0.4c-2.1,0.28-5.2,0.42-9,0.01
					c-3.79-0.4-8.26-1.48-12.86-3.57c-4.6-2.08-9.28-5.26-13.26-9.55c-3.92-4.34-6.68-9.29-8.34-14.05
					c-1.68-4.77-2.35-9.32-2.41-13.13c-0.07-3.81,0.34-6.89,0.81-8.96c0.19-1.05,0.47-1.83,0.61-2.37c0.16-0.54,0.26-0.81,0.29-0.8
					c0.25,0.03-1.36,4.57-1.05,12.11c0.14,3.75,0.88,8.2,2.56,12.86c1.67,4.66,4.39,9.48,8.22,13.72c3.88,4.19,8.44,7.32,12.93,9.4
					c4.49,2.09,8.86,3.22,12.58,3.69C398.48,558.69,403.14,557.5,403.16,557.75z"/>
				<path class="st9" d="M395.59,559.68c-1.39,0-2.99-0.07-4.78-0.26c-4.37-0.46-8.93-1.73-13.18-3.66
					c-5.08-2.3-9.78-5.68-13.59-9.79c-3.77-4.17-6.72-9.15-8.56-14.41c-1.54-4.39-2.4-9.04-2.47-13.46
					c-0.08-4.45,0.49-7.68,0.84-9.21c0.14-0.76,0.33-1.42,0.48-1.91c0.05-0.18,0.1-0.35,0.14-0.49c0.24-0.83,0.36-1.23,0.81-1.46
					l0.39-0.2l0.32,0.11l0.34,0.04l0.28,0.38c0.31,0.43,0.24,0.77,0.03,1.8c-0.33,1.65-1.12,5.5-0.9,10.87
					c0.15,4.1,1.02,8.44,2.5,12.55c1.75,4.89,4.52,9.51,8.01,13.38c3.52,3.8,7.88,6.97,12.6,9.15c5,2.33,9.43,3.24,12.27,3.6
					c5.32,0.68,9.23,0.25,10.9,0.06c1.04-0.12,1.39-0.15,1.78,0.17l0.34,0.28l0.03,0.32l0.11,0.33l-0.23,0.4
					c-0.25,0.44-0.57,0.51-1.51,0.71c-0.21,0.04-0.38,0.07-0.58,0.11c-0.52,0.1-1.16,0.23-1.95,0.31
					C398.95,559.55,397.45,559.68,395.59,559.68z"/>
			</g>
		</g>
		<g>
			<g>
				<path class="st9" d="M719.09,580.4c0.01,0.01-0.15,0.17-0.49,0.47c-0.37,0.33-0.87,0.76-1.49,1.31
					c-0.68,0.58-1.49,1.29-2.45,2.11c-0.96,0.84-2.09,1.79-3.43,2.77c-5.19,4.14-13.17,9.61-23.73,15.09
					c-2.6,1.45-5.49,2.64-8.41,4.04c-2.96,1.32-6.11,2.56-9.36,3.84c-6.57,2.39-13.69,4.71-21.35,6.51
					c-15.28,3.7-32.59,5.74-50.74,5.45c-18.16-0.41-35.35-2.92-50.66-6.46c-15.32-3.53-28.81-7.91-39.92-12.1
					c-11.12-4.18-19.93-8.04-25.95-10.84c-3.03-1.36-5.32-2.54-6.9-3.29c-0.75-0.37-1.34-0.67-1.78-0.89
					c-0.4-0.2-0.6-0.32-0.59-0.33s0.22,0.07,0.63,0.24c0.45,0.2,1.05,0.46,1.82,0.8c1.6,0.7,3.92,1.82,6.97,3.13
					c6.06,2.7,14.9,6.46,26.03,10.55c11.12,4.1,24.6,8.41,39.89,11.88c15.27,3.48,32.4,5.96,50.49,6.37
					c18.07,0.28,35.3-1.71,50.52-5.35c7.63-1.77,14.72-4.05,21.28-6.4c3.24-1.26,6.38-2.48,9.34-3.77c2.92-1.39,5.81-2.54,8.4-3.97
					c10.55-5.38,18.56-10.74,23.8-14.79c1.36-0.96,2.5-1.88,3.48-2.7c0.98-0.8,1.81-1.48,2.51-2.04c0.65-0.52,1.17-0.93,1.55-1.24
					C718.89,580.52,719.08,580.39,719.09,580.4z"/>
				<path class="st9" d="M600.98,623.05c-1.12,0-2.24-0.01-3.36-0.03c-16.79-0.38-33.9-2.56-50.88-6.49
					c-13.41-3.09-26.89-7.17-40.05-12.14c-9.17-3.44-17.92-7.1-26.02-10.87c-2.1-0.94-3.85-1.8-5.25-2.49
					c-0.62-0.3-1.17-0.57-1.65-0.8c-0.53-0.26-0.97-0.48-1.34-0.67l-0.46-0.23c-0.67-0.33-1.07-0.54-1.15-1.1l-0.08-0.52l0.37-0.37
					c0.51-0.51,1.01-0.3,1.76,0.01l1.84,0.81c0.61,0.27,1.33,0.6,2.16,0.98c1.32,0.61,2.93,1.34,4.81,2.15
					c8.36,3.72,17.09,7.26,25.98,10.53c13.19,4.86,26.56,8.85,39.76,11.84c16.83,3.83,33.74,5.97,50.28,6.34
					c17.2,0.26,34.58-1.57,50.26-5.32c6.58-1.53,13.31-3.55,21.17-6.37l0.09-0.04c3.23-1.26,6.28-2.44,9.19-3.71
					c1.01-0.48,2.05-0.95,3.07-1.4c1.86-0.83,3.61-1.62,5.25-2.52c11.3-5.76,19.1-11.17,23.67-14.7c1.43-1.01,2.59-1.96,3.45-2.67
					l0.44-0.36c0.8-0.65,1.49-1.22,2.09-1.7l0.65-0.52c0.35-0.28,0.65-0.51,0.89-0.71c0.52-0.41,1.29-1.03,1.96-0.28l0.28,0.31
					l-0.01,0.42c-0.02,0.49-0.28,0.71-0.84,1.21l-1.49,1.31c-0.34,0.29-0.7,0.6-1.08,0.93c-0.42,0.36-0.88,0.76-1.38,1.19
					c-0.86,0.75-2.04,1.75-3.49,2.82c-4.54,3.63-12.41,9.23-23.86,15.17c-1.74,0.97-3.59,1.82-5.55,2.71
					c-0.95,0.44-1.92,0.88-2.89,1.34c-3,1.34-6.11,2.56-9.4,3.86c-8,2.91-14.83,4.99-21.52,6.57
					C633.7,621.16,617.29,623.05,600.98,623.05z"/>
			</g>
		</g>
		<g>
			<g>
				<path class="st9" d="M791.2,582.26c-0.06,0.12-1.47-1.07-4.54-1.95c-3.05-0.9-7.79-1.05-13.3,0.43
					c-5.52,1.43-11.75,4.31-18.52,7.69c-6.76,3.43-13.97,7.62-21.62,11.9s-15.09,8.16-22.18,10.98c-7.06,2.86-13.72,4.71-19.41,5.65
					c-5.7,0.93-10.39,0.99-13.6,0.81c-1.61-0.07-2.85-0.23-3.69-0.35c-0.84-0.11-1.28-0.19-1.27-0.22c0.01-0.11,1.77,0.15,4.98,0.21
					c3.2,0.08,7.85-0.09,13.48-1.09c5.63-1.02,12.2-2.91,19.2-5.8c7.02-2.84,14.41-6.72,22.05-11
					c15.21-8.61,29.16-16.52,40.44-19.42c5.62-1.43,10.49-1.18,13.57-0.14c1.54,0.5,2.67,1.09,3.39,1.54
					C790.86,581.98,791.22,582.24,791.2,582.26z"/>
				<path class="st9" d="M681,618.89c-1.15,0-2.17-0.03-3.03-0.08c-1.61-0.07-2.87-0.23-3.78-0.36c-1.34-0.17-1.7-0.22-2-0.69
					l-0.26-0.41l0.12-0.38c0.17-0.92,1.08-0.86,2.14-0.78c0.85,0.06,2.14,0.15,3.88,0.18c2.89,0.07,7.54-0.05,13.28-1.07
					c5.93-1.08,12.5-3.06,18.99-5.74c7.65-3.1,15.74-7.48,21.94-10.95l0.16-0.09c14.99-8.49,29.15-16.5,40.52-19.43
					c5.26-1.34,10.42-1.38,14.16-0.12c1.68,0.55,2.89,1.2,3.61,1.64c1.33,0.93,1.46,1.03,1.5,1.55l0.04,0.48l-0.22,0.23l-0.13,0.25
					l-0.44,0.13c-0.47,0.14-0.8-0.05-1.22-0.3c-0.6-0.35-1.85-1.07-3.9-1.66c-1.6-0.47-6.03-1.37-12.74,0.44
					c-5.61,1.45-12.12,4.52-18.33,7.62c-5.12,2.6-10.5,5.63-16.18,8.84c-1.77,1-3.57,2.02-5.39,3.04
					c-6.24,3.49-14.41,7.9-22.3,11.04c-6.72,2.72-13.51,4.7-19.62,5.71C687.51,618.68,683.84,618.89,681,618.89z"/>
			</g>
		</g>
		<g>
			<g>
				<path class="st9" d="M555.74,544.64c0,0-0.53-0.11-1.54-0.35c-1.09-0.27-2.56-0.63-4.41-1.08c-3.76-1.15-9.26-2.78-15.65-5.8
					c-6.4-2.95-13.76-7.11-21.17-12.8c-3.73-2.8-7.38-6.09-11.03-9.62c-3.52-3.66-7.09-7.53-10.27-11.89
					c-13.63-17.02-16.75-37.5-26.27-48.19c-4.5-5.43-9.53-8.49-13.21-9.79c-1.84-0.7-3.35-0.97-4.37-1.14
					c-1.03-0.13-1.57-0.21-1.57-0.21s0.54,0.03,1.58,0.14c1.03,0.15,2.55,0.4,4.41,1.08c3.72,1.27,8.81,4.31,13.37,9.76
					c9.64,10.75,12.79,31.2,26.37,48.14c3.16,4.34,6.72,8.2,10.23,11.85c3.63,3.52,7.26,6.8,10.98,9.6
					c7.37,5.68,14.69,9.86,21.07,12.83c6.36,3.05,11.83,4.71,15.58,5.9c1.84,0.48,3.31,0.87,4.39,1.15
					C555.21,544.48,555.74,544.64,555.74,544.64z"/>
				<path class="st9" d="M555.53,545.66c0,0-0.54-0.11-1.57-0.36c-1.1-0.27-2.57-0.63-4.42-1.08l-0.57-0.17
					c-3.84-1.17-9.11-2.78-15.28-5.7c-7.53-3.47-14.72-7.82-21.36-12.92c-3.32-2.5-6.86-5.58-11.12-9.7
					c-3.49-3.62-7.14-7.57-10.39-12.02c-7.3-9.12-11.64-19.29-15.48-28.27c-3.42-8.02-6.38-14.96-10.73-19.84
					c-5.28-6.37-10.7-8.77-12.78-9.5c-1.85-0.7-3.38-0.96-4.19-1.1c-1-0.13-1.55-0.21-1.55-0.21l0.21-2.06c0,0,0.56,0.03,1.63,0.14
					c1.29,0.19,2.81,0.46,4.66,1.14c2.25,0.77,8.15,3.3,13.81,10.07c4.64,5.17,7.84,12.64,11.24,20.55
					c3.78,8.79,8.06,18.76,15.14,27.6c3.18,4.37,6.77,8.24,10.17,11.78c4.14,4.02,7.6,7.04,10.86,9.49
					c6.52,5.03,13.54,9.3,20.88,12.72c5.91,2.83,11.01,4.44,14.73,5.62l0.73,0.23l4.34,1.13c1.01,0.27,1.55,0.43,1.55,0.43
					L555.53,545.66z"/>
			</g>
		</g>
		<g>
			<g>
				<path class="st9" d="M647.36,610.76c0,0-4.48-0.45-12.55-1.5c-8.07-1.04-19.73-2.7-34.05-5.3
					c-28.62-5.13-67.93-14.22-109.78-29.14c-20.87-7.55-40.2-16.56-56.16-27.36c-16.07-10.64-28.48-23.13-37.15-34.8
					c-4.34-5.85-7.75-11.5-10.43-16.63c-2.63-5.15-4.52-9.77-5.86-13.62c-1.31-3.85-2.2-6.89-2.66-8.98
					c-0.5-2.08-0.74-3.18-0.74-3.18s0.29,1.09,0.82,3.16c0.48,2.08,1.39,5.11,2.72,8.95c1.36,3.83,3.27,8.43,5.91,13.57
					c2.69,5.11,6.11,10.74,10.45,16.57c8.68,11.63,21.08,24.07,37.13,34.68c15.95,10.77,35.25,19.76,56.1,27.3
					c41.82,14.91,81.1,24.03,109.7,29.23c14.3,2.63,25.96,4.33,34.02,5.42C642.48,610.12,646.16,610.6,647.36,610.76z"/>
				<path class="st9" d="M647.26,611.79c-0.04,0-4.59-0.46-12.58-1.5c-11.12-1.43-22.6-3.22-34.1-5.31
					c-25.77-4.62-65.76-13.43-109.94-29.18c-22.51-8.14-41.48-17.39-56.39-27.48c-18.49-12.24-30.55-25.81-37.4-35.04
					c-3.94-5.31-7.48-10.95-10.52-16.77c-2.36-4.62-4.35-9.24-5.92-13.76c-1.28-3.76-2.21-6.91-2.69-9.1
					c-0.5-2.07-0.74-3.18-0.74-3.18l2.02-0.49c0,0,0.29,1.09,0.82,3.17c0.5,2.14,1.43,5.2,2.7,8.87c1.56,4.38,3.53,8.91,5.85,13.44
					c2.99,5.68,6.48,11.21,10.36,16.42c6.76,9.06,18.65,22.39,36.87,34.43c14.77,9.98,33.57,19.12,55.88,27.19
					c43.85,15.63,83.77,24.5,109.53,29.18c11.31,2.08,22.43,3.85,33.97,5.41c7.65,0.99,11.33,1.47,12.53,1.63L647.26,611.79z"/>
			</g>
		</g>
		<g class="st10">
			<path d="M584.63,521.44c-8.22-4.29-16.99-11.47-22.62-20.95l-5.79,2.01c-22.12,7.43-44.23,14.86-66.35,22.29
				c-5.51,1.85-11.18,3.79-15.56,7.62s-7.19,10.06-5.31,15.56c2.53,7.4,11.67,9.92,19.48,10.32c19.59,0.99,38.88-4.43,57.75-9.81
				c21.69-6.18,53.87-16.25,75.32-23.78C603.92,526.84,594.51,526.6,584.63,521.44z"/>
		</g>
		<g>
			<g>
				<path class="st9" d="M453.23,611.52c0,0-9.09-1.5-23.66-4.57c-7.28-1.56-15.92-3.6-25.32-6.53c-9.4-2.92-19.54-6.85-29.54-12.3
					c-9.95-5.52-18.6-12.24-25.45-19.32c-6.84-7.11-11.96-14.48-15.24-21.17c-3.32-6.68-5.1-12.5-5.9-16.58
					c-0.52-2.02-0.61-3.65-0.82-4.72c-0.16-1.08-0.22-1.66-0.22-1.66s0.12,0.57,0.3,1.65c0.23,1.07,0.34,2.69,0.88,4.7
					c0.85,4.07,2.66,9.85,6,16.49c3.3,6.65,8.43,13.98,15.25,21.05c6.84,7.05,15.47,13.73,25.39,19.23
					c9.96,5.43,20.08,9.36,29.46,12.3s18.01,5,25.27,6.6c7.27,1.59,13.18,2.74,17.26,3.55c1.98,0.39,3.55,0.7,4.7,0.93
					C452.67,611.39,453.23,611.52,453.23,611.52z"/>
				<path class="st9" d="M453.06,612.54c-0.09-0.02-9.28-1.54-23.71-4.58c-6.03-1.29-15.22-3.38-25.41-6.55
					c-10.82-3.36-20.82-7.53-29.73-12.38c-9.64-5.35-18.52-12.09-25.7-19.51c-6.56-6.82-11.89-14.23-15.43-21.43
					c-3.86-7.76-5.41-13.88-5.99-16.84c-0.34-1.33-0.51-2.53-0.64-3.5c-0.06-0.46-0.12-0.87-0.18-1.22
					c-0.17-1.16-0.23-1.75-0.23-1.75l2.05-0.32c0,0,0.12,0.58,0.31,1.69c0.08,0.35,0.15,0.81,0.22,1.34c0.13,0.9,0.3,2.01,0.63,3.26
					c0.61,2.92,2.18,8.84,5.92,16.29c3.46,6.97,8.67,14.16,15.07,20.8c7.01,7.22,15.7,13.81,25.15,19.04
					c8.72,4.75,18.57,8.86,29.27,12.22c9.77,3.06,18.59,5.12,25.18,6.58c6.38,1.4,11.76,2.46,15.69,3.24l1.55,0.31
					c1.98,0.39,3.55,0.7,4.7,0.93c1.1,0.22,1.67,0.36,1.67,0.36L453.06,612.54z"/>
			</g>
		</g>
		<g>
			<g>
				<path class="st9" d="M390.72,627.7c0,0-0.55,0.07-1.61,0.17c-1.13,0.1-2.67,0.23-4.61,0.4c-4.01,0.31-9.82,0.72-17.01,0.86
					c-7.19,0.1-15.79-0.08-25.21-1.51c-9.4-1.4-19.63-4.25-29.39-9.36c-9.72-5.13-17.9-12.15-23.27-20.06
					c-5.4-7.89-8.07-16.31-8.92-23.45c-0.82-7.18,0.06-13.06,1.17-16.92c0.3-0.95,0.56-1.8,0.8-2.55c0.25-0.73,0.53-1.33,0.72-1.82
					c0.41-0.98,0.64-1.48,0.64-1.48s-0.18,0.53-0.57,1.51c-0.18,0.5-0.45,1.09-0.69,1.83c-0.23,0.75-0.48,1.61-0.76,2.56
					c-1.06,3.86-1.89,9.72-1.04,16.85c0.88,7.1,3.57,15.45,8.94,23.29c5.34,7.84,13.48,14.82,23.16,19.92
					c9.71,5.08,19.9,7.93,29.27,9.35c9.39,1.44,17.97,1.65,25.15,1.59c7.19-0.11,12.99-0.48,17.01-0.75
					c1.94-0.14,3.48-0.25,4.62-0.33C390.17,627.72,390.72,627.7,390.72,627.7z"/>
				<path class="st9" d="M364.3,630.19c-5.87,0-13.69-0.26-22.18-1.54c-10.79-1.61-20.79-4.79-29.72-9.47
					c-9.99-5.27-18.17-12.33-23.65-20.4c-6.25-9.13-8.39-18.04-9.09-23.91c-0.94-8.19,0.35-14.37,1.2-17.33l0.38-1.21
					c0.15-0.49,0.29-0.94,0.43-1.37c0.18-0.52,0.36-0.97,0.53-1.36c0.08-0.19,0.15-0.36,0.21-0.52c0.43-1.03,0.67-1.54,0.67-1.54
					l1.92,0.77c0,0-0.19,0.55-0.59,1.56c-0.06,0.17-0.14,0.38-0.24,0.61c-0.14,0.34-0.29,0.72-0.43,1.16
					c-0.17,0.56-0.36,1.2-0.57,1.9l-0.19,0.63c-0.77,2.8-1.93,8.68-1,16.43c0.69,5.58,2.78,14.08,8.77,22.83
					c5.19,7.63,13.29,14.58,22.79,19.59c8.67,4.54,18.41,7.65,28.94,9.24c9.8,1.5,18.5,1.63,24.99,1.58
					c7.56-0.12,13.67-0.53,16.95-0.75l4.62-0.33c1.07-0.08,1.64-0.1,1.64-0.1l0.17,2.07c0,0-0.56,0.07-1.64,0.17l-4.62,0.4
					c-4.28,0.33-10.07,0.73-17.08,0.86C366.52,630.18,365.45,630.19,364.3,630.19z"/>
			</g>
		</g>
	</g>
	<g>
		<ellipse class="st11" cx="500.15" cy="170.91" rx="22.76" ry="24.37"/>
		<g>
			<path class="st12" d="M498.35,146.54c0.04,0.1-0.92,0.43-2.51,1.27c-1.58,0.84-3.86,2.19-5.98,4.58
				c-2.13,2.37-3.95,5.8-4.93,9.92c-1.07,4.1-1.28,8.84,0.05,13.54c1.28,4.69,3.8,8.76,6.8,11.7c2.98,2.99,6.47,4.76,9.55,5.54
				c3.09,0.81,5.74,0.56,7.46,0.13c1.73-0.45,2.61-0.96,2.66-0.86c0.02,0.03-0.19,0.18-0.61,0.42c-0.41,0.26-1.06,0.56-1.94,0.85
				c-1.74,0.58-4.51,0.96-7.75,0.21c-3.23-0.7-6.93-2.49-10.07-5.57c-3.16-3.02-5.81-7.25-7.15-12.13
				c-1.39-4.87-1.13-9.89,0.02-14.07c1.07-4.23,3.04-7.8,5.34-10.19c2.28-2.43,4.7-3.71,6.36-4.45c0.84-0.37,1.51-0.6,1.98-0.73
				C498.09,146.56,498.34,146.5,498.35,146.54z"/>
		</g>
		<g>
			<path class="st13" d="M480.41,183.54c-0.14,0.01-0.34-0.45-0.26-1.23c0.07-0.77,0.49-1.86,1.44-2.67s2.09-1.05,2.86-1
				c0.79,0.05,1.21,0.31,1.18,0.45c-0.04,0.29-1.85,0.1-3.34,1.37C480.8,181.73,480.7,183.55,480.41,183.54z"/>
		</g>
		<g>
			<path class="st13" d="M481.35,176.04c-0.1-0.27,0.59-0.78,1.58-0.81c1-0.03,1.72,0.43,1.63,0.71c-0.08,0.29-0.79,0.34-1.6,0.37
				C482.16,176.34,481.45,176.33,481.35,176.04z"/>
		</g>
		<g>
			<path class="st13" d="M481.36,155.92c-0.14-0.26,1.22-0.96,2.82-0.33c1.61,0.62,2.14,2.06,1.85,2.16
				c-0.27,0.15-1.02-0.69-2.25-1.15C482.58,156.1,481.45,156.21,481.36,155.92z"/>
		</g>
	</g>
	<g>
		<g>
			<path class="st14" d="M588.71,407.13c-1.13-7.57-23.76-32.6-23.76-32.6s-11.31-45.4-14.71-58.79c-0.85-3.35-2.67-7.15-4.92-10.97
				c-7.9-13.39-19.47-24.24-33.03-31.86L481,255.31l-7.49-16.67l-75.23-38.65l-20.4,35.98c0,0-49.53,15.74-56.09,26.99
				c-6.56,11.24,3.25,161.93,3.25,161.93s-20.73,86.96-25.1,104.95s1.41,39.46,1.41,39.46l36.89-46.3
				c11.46-14.39,36.64-21,54.71-20.74l154.48,0.68l-6.15-43.27l124.91,24.29c0,0,21.49-41.91,23.19-42.75
				C691.08,440.37,588.71,407.13,588.71,407.13z"/>
		</g>
		<g>
			<path class="st15" d="M398.1,251.8c-1.08-1.1,5.69,30.37,18.01,64.12c6.64,18.19,9.96,37.48,9.96,56.9v74.31v47.9l74.07-5.03
				l-11.07-80.51c0,0-9.03-51.94-11.56-71.69c-2.31-18.09-10.27-67.13-10.27-67.13S429.12,283.38,398.1,251.8z"/>
		</g>
		<g>
			<g>
				<path class="st16" d="M559.43,437.5c-0.09-0.01-0.11-0.67-0.01-1.87c0.1-1.19,0.39-2.91,0.97-4.98
					c1.14-4.12,3.78-9.68,8.46-14.37c4.69-4.7,10.24-7.35,14.36-8.5c2.07-0.59,3.78-0.88,4.98-0.98c1.19-0.11,1.86-0.08,1.87,0
					c0.03,0.23-2.6,0.51-6.55,1.89c-3.94,1.35-9.2,4.03-13.7,8.54s-7.17,9.77-8.51,13.71C559.93,434.9,559.66,437.53,559.43,437.5z"
					/>
			</g>
		</g>
		<g>
			<g class="st17">
				<g>
					<path d="M317.57,474.86l-6.43,7.29c6.89,8.01,15.84,14.73,26.1,17.26s20.92,2.82,31.48,2.85c4.28,0.01,8.62-0.03,12.73-1.21
						c4.19-1.21,8.1-3.59,12.45-3.85c2.91-0.17,5.79,0.62,8.64,1.24c2.85,0.61,5.88,1.04,8.65,0.14c2.78-0.9,5.21-3.47,5.04-6.39
						C384.12,482.82,350.97,476.99,317.57,474.86z"/>
				</g>
			</g>
			<g>
				<path class="st18" d="M529.02,484.21l-18.17-19.3l-37.38-9.46c0,0-34.26,10.26-35.08,10.23c-0.82-0.03-29.81-7.92-29.81-7.92
					l-10.13,37.17l52.22,3.58l59.63-2.39c0,0,3.11-2.9,1.27-4.87c-1.84-1.98,9.97,3.35,11.36,3.41c1.37,0.06,4.09,1.13,5.93-1.1
					C530.09,492.04,531.8,487.16,529.02,484.21z"/>
			</g>
			<g>
				<g>
					<path class="st19" d="M511.55,491.25c-0.07,0.18-2.32-0.54-5.94-1.69s-8.64-2.69-14.25-4.12s-10.75-2.5-14.48-3.25
						s-6.04-1.21-6.01-1.4c0.02-0.17,2.39-0.04,6.17,0.47c3.79,0.51,8.99,1.44,14.65,2.88c5.65,1.45,10.67,3.14,14.23,4.53
						C509.49,490.05,511.61,491.08,511.55,491.25z"/>
				</g>
			</g>
			<g>
				<g>
					<path class="st19" d="M529.02,484.21c-0.08,0.19-3.2-0.98-8.29-2.68c-5.09-1.72-12.2-3.82-20.11-6.03
						c-7.9-2.35-14.94-4.7-20.27-5.01c-5.31-0.45-8.56,0.6-8.61,0.34c-0.02-0.07,0.76-0.4,2.24-0.75c1.48-0.36,3.69-0.63,6.42-0.53
						c5.51,0.08,12.76,2.34,20.58,4.66c7.91,2.21,15.03,4.47,20.06,6.42c2.52,0.96,4.53,1.82,5.9,2.45
						C528.32,483.73,529.05,484.13,529.02,484.21z"/>
				</g>
			</g>
		</g>
		<g>
			<path class="st14" d="M321.79,262.97c0,0-26.95,18.74-33.51,45.73c-6.56,26.99-34.96,137.19-29.14,153.68
				c5.83,16.49,119.15,32.66,119.15,32.66l13.43-56.65l-57.54-15.74c0,0,0.73-52.48,1.46-74.22
				C336.36,326.69,321.79,262.97,321.79,262.97z"/>
		</g>
		<g>
			<path class="st15" d="M390.97,446.84l14.67,3.61c2.13,0.52,3.42,2.69,2.86,4.81l-10.15,38.9l-18.22-2.92L390.97,446.84z"/>
		</g>
		<g>
			<g>
				<path class="st16" d="M391.57,441.16l0.6,0.17l-0.15,0.61c-2.91,11.94-5.97,24.54-9.13,37.55c-1.38,5.63-2.73,11.19-4.01,16.44
					l-0.15,0.61l-0.62-0.12c-17.68-3.33-34.36-6.62-49.43-9.78c-7.54-1.57-14.67-3.13-21.32-4.67c-6.65-1.56-12.83-3.02-18.37-4.9
					l0.08,0.02c-12.06-2.3-21.49-6.27-26.46-11.09c-2.5-2.38-3.57-4.99-3.86-6.74c-0.25-1.79-0.02-2.72-0.02-2.72
					c0.1,0-0.05,0.94,0.28,2.67c0.37,1.7,1.47,4.17,3.95,6.43c4.92,4.58,14.33,8.4,26.26,10.55l0.04,0.01l0.05,0.01
					c5.45,1.79,11.66,3.21,18.3,4.72c6.65,1.49,13.79,3.01,21.33,4.54c15.08,3.08,31.76,6.33,49.44,9.63l-0.77,0.5
					c1.28-5.25,2.63-10.81,4.01-16.44c3.18-13,6.26-25.6,9.18-37.53l0.45,0.78c-19.03-5.43-36.4-10.39-51.14-14.6l-0.03-0.01
					l-0.03-0.01c-7.81-3.2-15.57-4.36-22.31-3.91c-6.76,0.31-12.43,2.12-16.83,3.95c-4.41,1.89-7.57,3.94-9.67,5.36
					c-0.97,0.71-1.75,1.27-2.34,1.71c-0.53,0.38-0.81,0.57-0.83,0.55c-0.02-0.02,0.23-0.25,0.73-0.67c0.51-0.42,1.24-1.06,2.26-1.83
					c2.06-1.51,5.19-3.66,9.62-5.65c4.42-1.94,10.15-3.86,17.02-4.25c6.84-0.54,14.78,0.57,22.76,3.78l-0.06-0.02"/>
			</g>
		</g>
		<g>
			<g>
				<path class="st16" d="M337.28,426.4c-0.16,0.17-2.08-1.59-5.54-3.91c-3.45-2.32-8.55-5.05-14.63-6.83
					c-6.09-1.76-11.86-2.2-16.01-2.09c-4.16,0.1-6.73,0.55-6.77,0.32c-0.03-0.13,2.49-0.93,6.72-1.27
					c4.22-0.36,10.18-0.06,16.44,1.75c6.25,1.83,11.44,4.78,14.81,7.34C335.68,424.28,337.38,426.3,337.28,426.4z"/>
			</g>
		</g>
		<g>
			<g>
				<path class="st16" d="M344.83,334.09c0.09,0,0.1,1.23,0.04,3.46c-0.05,2.22-0.24,5.43-0.54,9.39
					c-0.63,7.92-1.82,18.84-3.88,30.79c-2.03,11.96-4.63,22.67-7.15,30.23c-0.63,1.89-1.28,3.57-1.84,5.05
					c-0.61,1.38-1.16,2.62-1.65,3.71c-1.06,1.97-1.68,3.03-1.76,2.98c-0.08-0.05,0.38-1.19,1.29-3.2c0.42-1.11,0.89-2.36,1.42-3.76
					c0.48-1.49,1.07-3.18,1.64-5.07c2.27-7.57,4.71-18.25,6.73-30.17c2.06-11.91,3.39-22.78,4.26-30.65
					c0.39-3.74,0.71-6.87,0.97-9.34C344.57,335.31,344.73,334.09,344.83,334.09z"/>
			</g>
		</g>
		<g>
			<g>
				<path class="st16" d="M410.54,304.86c-0.09,0.02-0.27-0.7-0.89-1.91c-0.63-1.18-1.78-2.87-3.87-4.24
					c-2.03-1.35-5.16-2.31-8.38-1.23c-3.17,1.02-6.29,4-7.08,8.01l-0.36,1.83l-0.79-1.7c-2.72-5.84-5.49-12.59-7.88-19.91
					c-4.36-13.28-6.24-25.99-5.83-35.18c-0.01-2.3,0.32-4.36,0.45-6.17c0.31-1.8,0.54-3.35,0.82-4.6c0.65-2.48,1.05-3.83,1.14-3.81
					c0.33,0.06-1.53,5.5-1.47,14.6c-0.17,9.06,1.83,21.58,6.15,34.74c2.37,7.25,5.08,13.98,7.71,19.82l-1.15,0.14
					c0.96-4.52,4.45-7.68,7.96-8.74c3.61-1.12,7.02,0.06,9.1,1.59c2.16,1.54,3.27,3.39,3.81,4.67c0.27,0.65,0.43,1.17,0.49,1.52
					C410.56,304.67,410.58,304.86,410.54,304.86z"/>
			</g>
		</g>
		<g>
			<g>
				<path class="st16" d="M473.41,310.67c-0.09,0.01-0.26-1.08-0.6-3.07c-0.27-1.98-0.93-4.9-0.55-8.64
					c0.52-3.67,2.25-8.12,6.22-11.42c1.96-1.62,4.65-2.71,7.5-2.69c2.82,0,5.89,1.09,7.89,3.53l-1.14,0.65
					c-0.78-1.98-1.61-4.05-2.45-6.16c-4.81-12.15-9.09-23.17-12.13-31.17c-1.42-3.83-2.61-7.02-3.53-9.5
					c-0.81-2.25-1.21-3.52-1.12-3.55s0.66,1.17,1.61,3.36c1.03,2.44,2.35,5.58,3.93,9.35c3.27,7.92,7.69,18.89,12.5,31.04
					c0.83,2.11,1.65,4.19,2.43,6.17l1.57,3.98l-2.71-3.33c-1.69-2.07-4.35-3.07-6.87-3.1c-2.55-0.03-4.93,0.88-6.76,2.34
					c-3.68,2.94-5.49,7.19-6.07,10.61c-0.48,3.53,0.02,6.47,0.15,8.46C473.48,309.55,473.49,310.66,473.41,310.67z"/>
			</g>
		</g>
		<g>
			<g>
				<path class="st16" d="M521.23,317.07c0.37-0.05,6.19,39.15,13.01,87.55c6.82,48.42,12.05,87.69,11.68,87.74
					s-6.19-39.14-13.01-87.56C526.1,356.4,520.87,317.12,521.23,317.07z"/>
			</g>
		</g>
		<g class="st17">
			<g>
				<path d="M382.08,286.16c0.32,10.01,2.51,19.95,6.42,29.12c2.81-3.47,5.92-7.13,10.19-8.16c5.33-1.28,10.71,2.02,14.56,6.02
					c-0.82-3.99-2.16-7.95-4.65-11.12c-2.49-3.17-6.26-5.45-10.22-5.34c-3.96,0.11-7.89,3.01-8.61,7.02l-7.39-17.36"/>
			</g>
		</g>
		<g>
			<g>
				<path class="st16" d="M338.53,314.49c-0.25,0-0.17-2.7-0.95-6.91c-0.77-4.2-2.65-9.9-6.27-15.34c-1.83-2.7-3.87-5.04-5.89-7.01
					c-2.08-1.9-4.08-3.49-5.91-4.6c-3.62-2.29-6.18-3.17-6.09-3.4c0.03-0.09,0.68,0.08,1.85,0.45c0.59,0.17,1.29,0.43,2.08,0.81
					c0.79,0.36,1.71,0.74,2.65,1.33c1.94,1.03,4.07,2.6,6.26,4.51c2.14,1.98,4.28,4.38,6.17,7.17c3.75,5.62,5.55,11.58,6.09,15.93
					c0.27,2.18,0.35,3.96,0.25,5.18C338.71,313.83,338.62,314.49,338.53,314.49z"/>
			</g>
		</g>
		<g>
			<g>
				<path class="st20" d="M625.79,418.58l-43.33,75.77l-106.75,2.32l-0.27,4.83l103.36-0.77l3.28-0.11l109.15,0.22l22.06-38.04
					l28.18-40.38c1.85-2.65-0.06-6.28-3.28-6.27l-108.95,0.42C627.81,416.58,626.5,417.34,625.79,418.58z"/>
			</g>
			<g>
				<g>
					<path class="st18" d="M713.3,462.8c0,0,5.61,5.14,4.72,9.51s-0.59,7.61-4.72,7.91c0,0,0.3,5.61-5.61,6.49
						c0,0,1.27,6.85-6.7,8.03c0,0-2.45,7.32-7.46,5.55c-5.02-1.77-8.27-3.84-8.27-3.84l-1.48-2.66c0,0-7.39-2.78-5.57-6.95
						c1.11-2.53,4.93-3.19,4.93-3.19s-1.59-3.72,0.47-6.49c1.77-2.38,7.55-0.41,7.55-0.41s-0.34-3.08,1.83-5.65
						c1.96-2.33,11.15,4,11.15,4l5.01-5.99L713.3,462.8z"/>
				</g>
				<g>
					<g>
						<path class="st19" d="M700.98,494.74c-0.16,0.25-4.28-2.02-9.21-5.09c-4.93-3.06-8.8-5.75-8.64-6s4.28,2.02,9.21,5.09
							C697.27,491.8,701.14,494.49,700.98,494.74z"/>
					</g>
				</g>
				<g>
					<g>
						<path class="st19" d="M707.69,486.71c-0.15,0.26-3.98-1.77-8.55-4.52s-8.14-5.19-7.99-5.45s3.98,1.77,8.55,4.52
							C704.26,484.02,707.84,486.46,707.69,486.71z"/>
					</g>
				</g>
				<g>
					<g>
						<path class="st19" d="M698.55,471.69c0.17-0.3,3.59,1.5,7.58,4.02c3.99,2.55,7.21,4.53,7.13,4.73
							c-0.15,0.35-3.71-1.26-7.7-3.81C701.55,474.1,698.43,471.91,698.55,471.69z"/>
					</g>
				</g>
			</g>
			<g>
				<path class="st15" d="M664.68,457.12c-1.93,2.14-1.97,5.24-0.1,6.93s4.95,1.32,6.88-0.81c1.93-2.14,1.97-5.24,0.1-6.93
					S666.61,454.98,664.68,457.12z"/>
			</g>
		</g>
	</g>
	<g>
		<g>
			<g>
				<g>
					<g>
						<g>
							<g>
								<g>
									<g>
										<g>
											<path class="st18" d="M496.24,201.09c0,1.49,0,2.92-0.02,4.28c-0.36,27.37-27.11,32.17-28.36,32.38
												c-0.02,0.02-0.04,0.02-0.04,0.02s0.02,0.38,0.06,1.11v0.06c0.2,3.31,0.75,13.07,1.27,23.7
												c0.93,18.66-13.13,34.65-31.73,36.15c-19.06,1.51-35.72-12.73-37.18-31.79l-10.63-138.54l4.16-3.21
												c17.33-13.33,38.31-20.23,59.47-20.23c13.01,0,26.1,2.6,38.47,7.93c0,0,2.36,31.29,3.69,59.73
												C495.85,183.07,496.2,193.1,496.24,201.09z"/>
										</g>
									</g>
								</g>
							</g>
							<g>
								<g>
									<g>
										<g>
											<path class="st19" d="M467.86,237.36c0,0-17.72,1.44-36.56-10.39c0,0,8.64,20.18,36.62,17.65L467.86,237.36z"/>
										</g>
									</g>
								</g>
							</g>
						</g>
					</g>
				</g>
				<g>
					<g>
						<g>
							<g>
								<g>
									<g>
										<g>
											<g>
												<g>
													<g>
														<path class="st7" d="M470.96,157.2c0.47-0.55,3.61,1.54,7.92,1.31c4.3-0.17,7.35-2.55,7.84-2.04
															c0.24,0.22-0.22,1.19-1.54,2.26c-1.3,1.07-3.56,2.15-6.24,2.28c-2.68,0.12-4.99-0.75-6.33-1.69
															C471.23,158.36,470.73,157.44,470.96,157.2z"/>
													</g>
												</g>
											</g>
										</g>
									</g>
								</g>
								<g>
									<g>
										<g>
											<g>
												<g>
													<g>
														<path class="st7" d="M428.49,158.13c0.5-0.52,3.52,1.75,7.83,1.78c4.3,0.09,7.49-2.1,7.95-1.57
															c0.23,0.24-0.28,1.17-1.67,2.16c-1.36,0.99-3.68,1.94-6.37,1.9c-2.68-0.04-4.93-1.05-6.22-2.07
															C428.69,159.31,428.25,158.36,428.49,158.13z"/>
													</g>
												</g>
											</g>
										</g>
									</g>
								</g>
								<g>
									<g>
										<g>
											<g>
												<g>
													<path class="st7" d="M459.67,185.14c-0.02-0.24,2.66-0.71,7-1.26c1.1-0.11,2.14-0.33,2.33-1.08
														c0.26-0.79-0.2-1.98-0.73-3.26c-1.03-2.66-2.12-5.45-3.25-8.38c-4.52-11.93-7.79-21.74-7.31-21.92
														s4.54,9.35,9.05,21.28c1.09,2.94,2.13,5.75,3.12,8.43c0.42,1.25,1.13,2.67,0.57,4.32c-0.3,0.82-1.1,1.42-1.81,1.61
														c-0.71,0.22-1.32,0.23-1.87,0.26C462.39,185.36,459.68,185.38,459.67,185.14z"/>
												</g>
											</g>
										</g>
									</g>
								</g>
								<g>
									<g>
										<g>
											<g>
												<g>
													<path class="st7" d="M456.51,203.1c0.51-0.49,3.56,3.06,8.76,2.97c5.2-0.08,8.64-3.72,9.1-3.25
														c0.24,0.18-0.25,1.41-1.81,2.83c-1.52,1.4-4.24,2.86-7.42,2.91c-3.18,0.05-5.75-1.33-7.12-2.68
														C456.61,204.51,456.25,203.29,456.51,203.1z"/>
												</g>
											</g>
										</g>
									</g>
								</g>
							</g>
						</g>
						<g>
							<g>
								<g>
									<g>
										<path class="st7" d="M445.14,136.29c-0.43,1.17-4.73,0.62-9.78,1.23c-5.07,0.51-9.15,1.99-9.82,0.94
											c-0.3-0.5,0.41-1.61,2.06-2.74c1.63-1.13,4.24-2.21,7.28-2.55c3.03-0.33,5.81,0.15,7.66,0.9
											C444.39,134.82,445.32,135.74,445.14,136.29z"/>
									</g>
								</g>
							</g>
						</g>
						<g>
							<g>
								<g>
									<g>
										<path class="st7" d="M484.8,139.91c-0.76,0.98-3.73-0.04-7.3-0.08c-3.57-0.17-6.59,0.66-7.29-0.37
											c-0.31-0.5,0.17-1.48,1.49-2.4c1.3-0.92,3.48-1.68,5.93-1.6c2.45,0.08,4.58,0.96,5.82,1.97
											C484.72,138.42,485.14,139.43,484.8,139.91z"/>
									</g>
								</g>
							</g>
						</g>
					</g>
				</g>
			</g>
			<path class="st19" d="M443,192.51c0,8.05-6.52,14.57-14.57,14.57c-8.05,0-14.57-6.52-14.57-14.57s6.52-14.57,14.57-14.57
				C436.47,177.94,443,184.47,443,192.51z"/>
			<path class="st19" d="M496.24,201.09c-6.78-1.23-11.9-7.16-11.9-14.3c0-6.84,4.7-12.57,11.05-14.12
				C495.85,183.07,496.2,193.1,496.24,201.09z"/>
		</g>
		<g>
			<g>
				<g>
					<g>
						<g>
							<path class="st18" d="M393.07,157.48c-0.48-0.21-19.27-5.7-18.65,13.47c0.61,19.17,19.73,14.6,19.75,14.05
								C394.18,184.46,393.07,157.48,393.07,157.48z"/>
						</g>
					</g>
				</g>
			</g>
			<g>
				<g>
					<g>
						<g>
							<g>
								<path class="st21" d="M388.07,177.93c-0.09-0.06-0.33,0.24-0.88,0.52c-0.54,0.27-1.48,0.47-2.49,0.13
									c-2.05-0.68-3.86-3.84-4.06-7.29c-0.1-1.74,0.21-3.42,0.78-4.81c0.54-1.42,1.42-2.43,2.43-2.64c1.01-0.27,1.75,0.32,2,0.85
									c0.27,0.53,0.16,0.91,0.27,0.94c0.06,0.05,0.4-0.33,0.22-1.12c-0.09-0.38-0.33-0.82-0.79-1.18
									c-0.47-0.36-1.15-0.53-1.86-0.43c-1.47,0.15-2.76,1.55-3.39,3.08c-0.71,1.54-1.1,3.42-0.99,5.38
									c0.25,3.86,2.34,7.41,5.14,8.12c1.36,0.31,2.47-0.13,3.04-0.61C388.06,178.4,388.14,177.96,388.07,177.93z"/>
							</g>
						</g>
					</g>
				</g>
			</g>
		</g>
		<g>
			<path class="st7" d="M502.43,88.71c-4.07-8.04-12-14.02-20.85-15.72c-8.85-1.7-18.43,0.91-25.2,6.87
				c-4.24-8.44-12.84-14.54-22.21-15.76c-0.59-0.08-1.17-0.13-1.76-0.17c-12.45-0.8-23.41,8.21-25.95,20.43l-10.51,0.92
				c0,0-14.57,13.8-20.05,18.2c-6.03,4.84-9.04,13.17-7.49,20.75c1.55,7.58,7.59,14.06,15.04,16.14
				c-6.01,10.85-0.38,26.4,11.19,30.88l2.8-1.16c10.61-11.65,13.03-30.02,5.81-44.02c0.34,0.02,0.67-0.04,1.01-0.04
				c3.69,2.01,7.94,3.02,12.14,2.78c6.7-0.39,13.15-3.97,17.04-9.45c7.66,5.52,18.63,5.98,26.72,1.12c1.28-0.77,2.55-1.67,4.03-1.83
				c1.76-0.19,3.43,0.72,5.02,1.5c4.21,2.06,8.93,3.41,13.57,2.74c4.33-0.63,8.48-3.32,10.19-7.29c0.11-0.02,0.21-0.02,0.32-0.04
				c5.4-0.98,9.74-5.59,11.23-10.88C505.98,99.39,504.91,93.61,502.43,88.71z"/>
		</g>
	</g>
	<g>
		<path class="st11" d="M376.24,163.49c0,0-19.03-65.05,19.7-78.23l6.31-0.39c0,0-29.48,17.93-16.49,72.3"/>
		<g>
			
				<ellipse transform="matrix(0.9981 -0.0623 0.0623 0.9981 -10.3641 24.1601)" class="st11" cx="382.26" cy="178.28" rx="22.76" ry="24.37"/>
			<g>
				<path class="st12" d="M382.53,153.83c0.01-0.04,0.26,0,0.73,0.11c0.47,0.1,1.16,0.29,2.02,0.61c1.7,0.63,4.2,1.76,6.62,4.04
					c2.44,2.25,4.63,5.68,5.96,9.84c1.41,4.1,1.99,9.09,0.9,14.04c-1.03,4.96-3.41,9.34-6.38,12.55c-2.94,3.26-6.52,5.28-9.7,6.18
					c-3.2,0.95-5.98,0.74-7.75,0.27c-0.89-0.23-1.56-0.49-1.99-0.72c-0.43-0.22-0.65-0.35-0.63-0.38c0.04-0.1,0.95,0.36,2.71,0.7
					c1.74,0.33,4.4,0.41,7.44-0.59c3.03-0.96,6.4-2.95,9.19-6.12c2.81-3.12,5.07-7.34,6.06-12.1c1.04-4.78,0.53-9.49-0.79-13.52
					c-1.24-4.05-3.27-7.36-5.54-9.59c-2.26-2.26-4.62-3.46-6.25-4.2C383.47,154.2,382.49,153.94,382.53,153.83z"/>
			</g>
			<g>
				<path class="st12" d="M402.56,189.43c-0.25-0.52-0.64-1.83-1.89-2.74c-1.58-1.18-3.36-0.87-3.42-1.16
					c-0.04-0.15,0.37-0.44,1.14-0.52c0.77-0.1,1.93,0.06,2.93,0.81s1.49,1.81,1.6,2.57c0.02,0.08,0.02,0.17,0.02,0.25L402.56,189.43
					z"/>
			</g>
			<g>
				<path class="st12" d="M401.33,182.22c-0.08,0.29-0.79,0.34-1.59,0.37c-0.81,0.02-1.51,0.01-1.62-0.27
					c-0.1-0.27,0.58-0.78,1.58-0.81C400.69,181.48,401.41,181.94,401.33,182.22z"/>
			</g>
			<g>
				<path class="st12" d="M398.74,161.64c-0.46,0-0.98,0.08-1.52,0.33c-1.56,0.73-1.99,2.2-1.72,2.26c0.29,0.15,0.98-0.75,2.18-1.29
					c0.64-0.31,1.27-0.44,1.72-0.54L398.74,161.64z"/>
			</g>
		</g>
	</g>
	<g>
		<path class="st11" d="M507.62,291.75c-0.04,7.16-0.1,15.11-2.1,23.41c-1.02,4.13-2.62,8.32-5.19,12.1
			c-2.55,3.8-6.25,6.89-10.36,9.34c-7.2,4.32-15.69,6.77-24.55,8.07c-0.29,0.06-0.6,0.1-0.89,0.14c-0.25,0.04-0.48,0.06-0.73,0.08
			c-0.31,0.06-0.62,0.1-0.93,0.12c-0.46,0.06-0.91,0.12-1.37,0.17c-10.29,1.1-21.3,0.87-31.86-2.49
			c-5.25-1.68-10.25-4.13-14.51-7.47c-4.25-3.3-7.82-7.39-10.44-11.91c-5.31-9.05-7.47-19.05-8.92-28.41
			c-1.39-9.4-2.26-18.39-3.28-26.75c-0.95-8.39-1.87-16.21-2.68-23.33c-1.62-14.24-2.93-25.76-3.84-33.79
			c-0.42-3.96-0.75-7.04-0.98-9.19c-0.1-1.02,0.06-1.04,0.19-0.02c0.29,2.14,0.68,5.23,1.18,9.17c0.98,8.01,2.41,19.53,4.15,33.75
			c0.85,7.12,1.79,14.92,2.8,23.31c1.06,8.36,1.95,17.35,3.36,26.71c1.47,9.32,3.65,19.2,8.86,28.06
			c2.57,4.42,6.04,8.39,10.21,11.62c4.15,3.26,9.03,5.65,14.2,7.29c10.38,3.32,21.25,3.57,31.42,2.47c0.48-0.06,0.98-0.1,1.45-0.17
			c0.31-0.04,0.62-0.08,0.93-0.12c9.34-1.2,18.29-3.63,25.74-8.09c4.05-2.41,7.62-5.38,10.11-9.05c2.51-3.65,4.09-7.74,5.11-11.79
			c1.99-8.16,2.1-16.09,2.2-23.25c0.1-14.34-0.44-25.94-0.87-33.96c-0.23-4.01-2.24-58.22-2.45-60.34c-0.1-1.04-0.23-1.85-0.29-2.37
			c-0.1-0.54-0.15-0.81-0.12-0.83c0.02,0,0.08,0.27,0.23,0.81c0.1,0.52,0.25,1.33,0.37,2.37c0.29,2.1,2.37,56.33,2.66,60.34
			C507,265.77,507.64,277.37,507.62,291.75z"/>
	</g>
	
		<rect x="469.83" y="343.89" transform="matrix(0.9862 -0.1656 0.1656 0.9862 -59.8909 83.5077)" class="st11" width="2.08" height="114.07"/>
</g>
</svg>
